<svg width="48" height="48" viewBox="0 0 48 48" fill="none" xmlns="http://www.w3.org/2000/svg">
<rect x="0.5" y="0.5" width="47" height="47" rx="23.5" stroke="white"/>
<path d="M33 24C33 24.1989 32.921 24.3897 32.7803 24.5303C32.6397 24.671 32.4489 24.75 32.25 24.75H17.5603L23.0306 30.2194C23.1003 30.289 23.1556 30.3718 23.1933 30.4628C23.231 30.5539 23.2504 30.6514 23.2504 30.75C23.2504 30.8485 23.231 30.9461 23.1933 31.0372C23.1556 31.1282 23.1003 31.2109 23.0306 31.2806C22.9609 31.3503 22.8782 31.4056 22.7872 31.4433C22.6961 31.481 22.5985 31.5004 22.5 31.5004C22.4015 31.5004 22.3039 31.481 22.2128 31.4433C22.1218 31.4056 22.0391 31.3503 21.9694 31.2806L15.2194 24.5306C15.1496 24.461 15.0943 24.3782 15.0566 24.2872C15.0188 24.1961 14.9994 24.0986 14.9994 24C14.9994 23.9014 15.0188 23.8038 15.0566 23.7128C15.0943 23.6217 15.1496 23.539 15.2194 23.4694L21.9694 16.7194C22.1101 16.5786 22.301 16.4996 22.5 16.4996C22.699 16.4996 22.8899 16.5786 23.0306 16.7194C23.1714 16.8601 23.2504 17.051 23.2504 17.25C23.2504 17.449 23.1714 17.6399 23.0306 17.7806L17.5603 23.25H32.25C32.4489 23.25 32.6397 23.329 32.7803 23.4697C32.921 23.6103 33 23.8011 33 24Z" fill="white"/>
</svg>
