<svg width="11" height="14" viewBox="0 0 11 14" fill="none" xmlns="http://www.w3.org/2000/svg">
<path d="M8.375 2.48423C7.60299 1.59263 6.73409 0.789768 5.78438 0.0904847C5.7003 0.0315916 5.60015 0 5.4975 0C5.39485 0 5.2947 0.0315916 5.21063 0.0904847C4.26266 0.790059 3.39545 1.59291 2.625 2.48423C0.906875 4.45736 0 6.53736 0 8.49986C0 9.95855 0.579463 11.3575 1.61091 12.3889C2.64236 13.4204 4.04131 13.9999 5.5 13.9999C6.95869 13.9999 8.35764 13.4204 9.38909 12.3889C10.4205 11.3575 11 9.95855 11 8.49986C11 6.53736 10.0931 4.45736 8.375 2.48423Z" fill="white"/>
</svg>
