<svg width="16" height="16" viewBox="0 0 16 16" fill="none" xmlns="http://www.w3.org/2000/svg">
<path d="M14.3837 3.67937C14.3368 3.62321 14.2781 3.57804 14.2118 3.54704C14.1455 3.51605 14.0732 3.49999 14 3.5H3.9175L3.5375 1.41062C3.51657 1.29542 3.45587 1.19121 3.36598 1.11617C3.27609 1.04113 3.16272 1.00002 3.04562 1H1.5C1.36739 1 1.24021 1.05268 1.14645 1.14645C1.05268 1.24021 1 1.36739 1 1.5C1 1.63261 1.05268 1.75979 1.14645 1.85355C1.24021 1.94732 1.36739 2 1.5 2H2.625L4.2225 10.7681C4.26956 11.0282 4.38448 11.2712 4.55562 11.4725C4.3194 11.6931 4.14891 11.9749 4.06304 12.2865C3.97717 12.5981 3.97928 12.9274 4.06914 13.2379C4.15901 13.5484 4.33311 13.828 4.57214 14.0455C4.81117 14.2631 5.1058 14.4103 5.42335 14.4706C5.7409 14.531 6.06896 14.5022 6.37116 14.3875C6.67335 14.2728 6.93788 14.0767 7.1354 13.8208C7.33292 13.5649 7.45572 13.2594 7.49018 12.938C7.52464 12.6166 7.46941 12.2919 7.33063 12H10.1694C10.0575 12.2342 9.99963 12.4905 10 12.75C10 13.0961 10.1026 13.4345 10.2949 13.7222C10.4872 14.01 10.7605 14.2343 11.0803 14.3668C11.4001 14.4992 11.7519 14.5339 12.0914 14.4664C12.4309 14.3989 12.7427 14.2322 12.9874 13.9874C13.2322 13.7427 13.3989 13.4309 13.4664 13.0914C13.5339 12.7519 13.4992 12.4001 13.3668 12.0803C13.2343 11.7605 13.01 11.4872 12.7222 11.2949C12.4345 11.1026 12.0961 11 11.75 11H5.69812C5.58103 11 5.46766 10.9589 5.37777 10.8838C5.28788 10.8088 5.22718 10.7046 5.20625 10.5894L5.00812 9.5H12.2581C12.6094 9.49995 12.9495 9.37661 13.2192 9.15149C13.4889 8.92637 13.671 8.61375 13.7338 8.26812L14.4937 4.08938C14.5066 4.01715 14.5034 3.94298 14.4844 3.87212C14.4654 3.80127 14.431 3.73546 14.3837 3.67937ZM6.5 12.75C6.5 12.8983 6.45601 13.0433 6.3736 13.1667C6.29119 13.29 6.17406 13.3861 6.03701 13.4429C5.89997 13.4997 5.74917 13.5145 5.60368 13.4856C5.4582 13.4566 5.32456 13.3852 5.21967 13.2803C5.11478 13.1754 5.04335 13.0418 5.01441 12.8963C4.98547 12.7508 5.00032 12.6 5.05709 12.463C5.11386 12.3259 5.20999 12.2088 5.33332 12.1264C5.45666 12.044 5.60166 12 5.75 12C5.94891 12 6.13968 12.079 6.28033 12.2197C6.42098 12.3603 6.5 12.5511 6.5 12.75ZM12.5 12.75C12.5 12.8983 12.456 13.0433 12.3736 13.1667C12.2912 13.29 12.1741 13.3861 12.037 13.4429C11.9 13.4997 11.7492 13.5145 11.6037 13.4856C11.4582 13.4566 11.3246 13.3852 11.2197 13.2803C11.1148 13.1754 11.0434 13.0418 11.0144 12.8963C10.9855 12.7508 11.0003 12.6 11.0571 12.463C11.1139 12.3259 11.21 12.2088 11.3333 12.1264C11.4567 12.044 11.6017 12 11.75 12C11.9489 12 12.1397 12.079 12.2803 12.2197C12.421 12.3603 12.5 12.5511 12.5 12.75Z" fill="white"/>
</svg>
