<svg width="28" height="28" viewBox="0 0 28 28" fill="none" xmlns="http://www.w3.org/2000/svg">
<path d="M10.9375 12.7345C11.0706 12.6577 11.1811 12.5472 11.2579 12.4142C11.3347 12.2811 11.3751 12.1302 11.375 11.9766V4.10156C11.3743 3.96206 11.3401 3.82477 11.2755 3.70113C11.2109 3.5775 11.1176 3.47111 11.0035 3.39083C10.8894 3.31056 10.7578 3.25873 10.6196 3.23967C10.4814 3.22061 10.3407 3.23486 10.2091 3.28125C7.65517 4.18514 5.50742 5.97039 4.15193 8.31608C2.79645 10.6618 2.32213 13.414 2.81426 16.0781C2.83977 16.2159 2.89798 16.3455 2.98401 16.4561C3.07004 16.5667 3.18137 16.655 3.30863 16.7136C3.42332 16.7672 3.54843 16.7949 3.67504 16.7945C3.82861 16.7946 3.9795 16.7542 4.11254 16.6775L10.9375 12.7345ZM9.62504 5.42719V11.4712L4.38816 14.4933C4.37504 14.3281 4.37504 14.1619 4.37504 14C4.37659 12.2263 4.86754 10.4875 5.79384 8.97492C6.72014 7.46235 8.04586 6.23472 9.62504 5.42719ZM25.375 14C25.3759 16.4972 24.555 18.9252 23.039 20.9096C21.523 22.8939 19.3961 24.3242 16.9866 24.9799C14.577 25.6355 12.0187 25.48 9.70623 24.5374C7.3938 23.5948 5.45582 21.9174 4.19129 19.7641C4.13234 19.6646 4.09369 19.5544 4.07757 19.44C4.06145 19.3255 4.06817 19.2089 4.09736 19.097C4.12655 18.9852 4.17762 18.8802 4.24762 18.7882C4.31762 18.6962 4.40517 18.6189 4.50519 18.5609L13.125 13.5439V3.5C13.125 3.26794 13.2172 3.04538 13.3813 2.88128C13.5454 2.71719 13.768 2.625 14 2.625C15.9851 2.62601 17.9353 3.14621 19.6571 4.13394C21.3789 5.12168 22.8124 6.5426 23.8154 8.25563C23.8274 8.27313 23.8383 8.29063 23.8493 8.30922C23.8602 8.32781 23.8711 8.34969 23.881 8.36937C24.8624 10.0835 25.3776 12.0248 25.375 14Z" fill="white"/>
</svg>
