<svg width="28" height="28" viewBox="0 0 28 28" fill="none" xmlns="http://www.w3.org/2000/svg">
<path d="M9.625 11.375H4.375C4.14294 11.375 3.92038 11.2828 3.75628 11.1187C3.59219 10.9546 3.5 10.7321 3.5 10.5V5.25001C3.5 5.01794 3.59219 4.79538 3.75628 4.63129C3.92038 4.46719 4.14294 4.37501 4.375 4.37501C4.60706 4.37501 4.82962 4.46719 4.99372 4.63129C5.15781 4.79538 5.25 5.01794 5.25 5.25001V8.38797L6.85016 6.78782C8.80164 4.82651 11.452 3.72026 14.2188 3.71219H14.2767C17.0199 3.70513 19.6555 4.77908 21.6125 6.70141C21.7723 6.86488 21.8618 7.0844 21.8618 7.313C21.8618 7.5416 21.7723 7.76112 21.6126 7.92461C21.4528 8.0881 21.2354 8.18257 21.0068 8.18781C20.7783 8.19306 20.5568 8.10865 20.3897 7.95266C18.7584 6.3515 16.5625 5.45684 14.2767 5.46219H14.2275C11.9221 5.46929 9.71368 6.39096 8.08719 8.02485L6.48703 9.62501H9.625C9.85706 9.62501 10.0796 9.71719 10.2437 9.88129C10.4078 10.0454 10.5 10.2679 10.5 10.5C10.5 10.7321 10.4078 10.9546 10.2437 11.1187C10.0796 11.2828 9.85706 11.375 9.625 11.375ZM23.625 16.625H18.375C18.1429 16.625 17.9204 16.7172 17.7563 16.8813C17.5922 17.0454 17.5 17.2679 17.5 17.5C17.5 17.7321 17.5922 17.9546 17.7563 18.1187C17.9204 18.2828 18.1429 18.375 18.375 18.375H21.513L19.9128 19.9752C18.2866 21.6088 16.0786 22.5304 13.7736 22.5378H13.7244C11.4386 22.5432 9.24264 21.6485 7.61141 20.0473C7.52991 19.964 7.43257 19.8977 7.32511 19.8525C7.21764 19.8073 7.10223 19.784 6.98564 19.784C6.86904 19.784 6.75363 19.8073 6.64617 19.8525C6.53872 19.8978 6.44138 19.964 6.35989 20.0474C6.2784 20.1308 6.2144 20.2296 6.17164 20.3381C6.12889 20.4466 6.10824 20.5625 6.11091 20.679C6.11359 20.7956 6.13953 20.9105 6.18721 21.0169C6.2349 21.1232 6.30337 21.219 6.38859 21.2986C8.3456 23.2209 10.9812 24.2949 13.7244 24.2878H13.7812C16.5476 24.2795 19.1975 23.1732 21.1488 21.2122L22.75 19.612V22.75C22.75 22.9821 22.8422 23.2046 23.0063 23.3687C23.1704 23.5328 23.3929 23.625 23.625 23.625C23.8571 23.625 24.0796 23.5328 24.2437 23.3687C24.4078 23.2046 24.5 22.9821 24.5 22.75V17.5C24.5 17.2679 24.4078 17.0454 24.2437 16.8813C24.0796 16.7172 23.8571 16.625 23.625 16.625Z" fill="white"/>
</svg>
